<svg width="300" height="27" viewBox="0 0 300 27" fill="none" xmlns="http://www.w3.org/2000/svg">
<path d="M10.376 26.252C8.528 26.252 6.872 25.952 5.408 25.352C3.944 24.752 2.768 23.864 1.88 22.688C1.016 21.512 0.56 20.096 0.512 18.44H7.064C7.16 19.376 7.484 20.096 8.036 20.6C8.588 21.08 9.308 21.32 10.196 21.32C11.108 21.32 11.828 21.116 12.356 20.708C12.884 20.276 13.148 19.688 13.148 18.944C13.148 18.32 12.932 17.804 12.5 17.396C12.092 16.988 11.576 16.652 10.952 16.388C10.352 16.124 9.488 15.824 8.36 15.488C6.728 14.984 5.396 14.48 4.364 13.976C3.332 13.472 2.444 12.728 1.7 11.744C0.956 10.76 0.584 9.476 0.584 7.892C0.584 5.54 1.436 3.704 3.14 2.384C4.844 1.04 7.064 0.368 9.8 0.368C12.584 0.368 14.828 1.04 16.532 2.384C18.236 3.704 19.148 5.552 19.268 7.928H12.608C12.56 7.112 12.26 6.476 11.708 6.02C11.156 5.54 10.448 5.3 9.584 5.3C8.84 5.3 8.24 5.504 7.784 5.912C7.328 6.296 7.1 6.86 7.1 7.604C7.1 8.42 7.484 9.056 8.252 9.512C9.02 9.968 10.22 10.46 11.852 10.988C13.484 11.54 14.804 12.068 15.812 12.572C16.844 13.076 17.732 13.808 18.476 14.768C19.22 15.728 19.592 16.964 19.592 18.476C19.592 19.916 19.22 21.224 18.476 22.4C17.756 23.576 16.7 24.512 15.308 25.208C13.916 25.904 12.272 26.252 10.376 26.252ZM39.1124 21.536H29.6804L28.1684 26H21.7244L30.8684 0.727999H37.9964L47.1404 26H40.6244L39.1124 21.536ZM37.5284 16.784L34.3964 7.532L31.3004 16.784H37.5284ZM72.5314 26H66.3754L56.0794 10.412V26H49.9234V0.727999H56.0794L66.3754 16.388V0.727999H72.5314V26ZM99.6017 26H93.4457L83.1497 10.412V26H76.9937V0.727999H83.1497L93.4457 16.388V0.727999H99.6017V26ZM110.22 0.727999V26H104.064V0.727999H110.22ZM132.861 0.727999V5.66H126.165V26H120.009V5.66H113.313V0.727999H132.861ZM157.839 0.727999V26H151.683V15.596H142.107V26H135.951V0.727999H142.107V10.628H151.683V0.727999H157.839Z" fill="#FE9D28"/>
<path d="M184.564 26L176.068 14.84V26H169.912V0.727999H176.068V11.816L184.492 0.727999H191.728L181.936 13.112L192.088 26H184.564ZM201.061 0.727999V15.848C201.061 17.36 201.433 18.524 202.177 19.34C202.921 20.156 204.013 20.564 205.453 20.564C206.893 20.564 207.997 20.156 208.765 19.34C209.533 18.524 209.917 17.36 209.917 15.848V0.727999H216.073V15.812C216.073 18.068 215.593 19.976 214.633 21.536C213.673 23.096 212.377 24.272 210.745 25.064C209.137 25.856 207.337 26.252 205.345 26.252C203.353 26.252 201.565 25.868 199.981 25.1C198.421 24.308 197.185 23.132 196.273 21.572C195.361 19.988 194.905 18.068 194.905 15.812V0.727999H201.061ZM249.016 0.727999V26H242.86V10.844L237.208 26H232.24L226.552 10.808V26H220.396V0.727999H227.668L234.76 18.224L241.78 0.727999H249.016ZM269.175 21.536H259.743L258.231 26H251.787L260.931 0.727999H268.059L277.203 26H270.687L269.175 21.536ZM267.591 16.784L264.459 7.532L261.363 16.784H267.591ZM292.874 26L287.618 16.46H286.142V26H279.986V0.727999H290.318C292.31 0.727999 294.002 1.076 295.394 1.772C296.81 2.468 297.866 3.428 298.562 4.652C299.258 5.852 299.606 7.196 299.606 8.684C299.606 10.364 299.126 11.864 298.166 13.184C297.23 14.504 295.838 15.44 293.99 15.992L299.822 26H292.874ZM286.142 12.104H289.958C291.086 12.104 291.926 11.828 292.478 11.276C293.054 10.724 293.342 9.944 293.342 8.936C293.342 7.976 293.054 7.22 292.478 6.668C291.926 6.116 291.086 5.84 289.958 5.84H286.142V12.104Z" fill="white"/>
</svg>
